HIERARCHY
ROOT Hips
{
	OFFSET 0 0 0
	CHANNELS 6 Xposition Yposition Zposition Yrotation Xrotation Zrotation
	JOINT Spine
	{
		OFFSET -0 8.49848 -2.70889
		CHANNELS 3 Yrotation Xrotation Zrotation
		JOINT Spine1
		{
			OFFSET -0 9.87358 0
			CHANNELS 3 Yrotation Xrotation Zrotation
			JOINT Spine2
			{
				OFFSET -0 9.87358 0
				CHANNELS 3 Yrotation Xrotation Zrotation
				JOINT Spine3
				{
					OFFSET -0 9.87358 0
					CHANNELS 3 Yrotation Xrotation Zrotation
					JOINT Neck
					{
						OFFSET -0 15.0924 3.70889
						CHANNELS 3 Yrotation Xrotation Zrotation
						JOINT Head
						{
							OFFSET -0 10.6231 0
							CHANNELS 3 Yrotation Xrotation Zrotation
							End Site
							{
								OFFSET 0 15 0
							}
						}
					}
					JOINT LeftShoulder
					{
						OFFSET 1.77052 5.74391 3.54103
						CHANNELS 3 Yrotation Xrotation Zrotation
						JOINT LeftArm
						{
							OFFSET 16.6103 0 0
							CHANNELS 3 Yrotation Xrotation Zrotation
							JOINT LeftForeArm
							{
								OFFSET 23.9031 0 0
								CHANNELS 3 Yrotation Xrotation Zrotation
								JOINT LeftHand
								{
									OFFSET 22.9034 0 0
									CHANNELS 3 Yrotation Xrotation Zrotation
									End Site
									{
										OFFSET 15 0 0
									}
								}
							}
						}
					}
					JOINT RightShoulder
					{
						OFFSET -1.77052 5.74391 3.54103
						CHANNELS 3 Yrotation Xrotation Zrotation
						JOINT RightArm
						{
							OFFSET -16.6103 0 0
							CHANNELS 3 Yrotation Xrotation Zrotation
							JOINT RightForeArm
							{
								OFFSET -23.9031 0 0
								CHANNELS 3 Yrotation Xrotation Zrotation
								JOINT RightHand
								{
									OFFSET -22.9034 0 0
									CHANNELS 3 Yrotation Xrotation Zrotation
									End Site
									{
										OFFSET -15 0 0
									}
								}
							}
						}
					}
				}
			}
		}
	}
	JOINT LeftUpLeg
	{
		OFFSET 10.6231 -3.54103 2
		CHANNELS 3 Yrotation Xrotation Zrotation
		JOINT LeftLeg
		{
			OFFSET -0 -40.1531 2.47872
			CHANNELS 3 Yrotation Xrotation Zrotation
			JOINT LeftFoot
			{
				OFFSET -0 -42.693 -2.47872
				CHANNELS 3 Yrotation Xrotation Zrotation
				JOINT LeftToeBase
				{
					OFFSET -0 -6.83596 15.9346
					CHANNELS 3 Yrotation Xrotation Zrotation
					End Site
					{
						OFFSET 0 0 5
					}
				}
			}
		}
	}
	JOINT RightUpLeg
	{
		OFFSET -10.6231 -3.54103 2
		CHANNELS 3 Yrotation Xrotation Zrotation
		JOINT RightLeg
		{
			OFFSET -0 -40.1531 2.47872
			CHANNELS 3 Yrotation Xrotation Zrotation
			JOINT RightFoot
			{
				OFFSET -0 -42.693 -2.47872
				CHANNELS 3 Yrotation Xrotation Zrotation
				JOINT RightToeBase
				{
					OFFSET -0 -6.83596 15.9346
					CHANNELS 3 Yrotation Xrotation Zrotation
					End Site
					{
						OFFSET 0 0 5
					}
				}
			}
		}
	}
}
MOTION
Frames: 7
Frame Time: 0.00833333
-107.977258 91.626245 141.434119 29.487260 8.576766 5.988961 0.432978 8.122946 2.831830 3.516413 7.824431 3.831459 3.566235 6.799927 4.763415 6.622149 6.134665 3.770672 -23.237776 12.544605 10.379389 -9.380073 11.157595 12.557079 7.248279 -2.118435 12.972312 -22.254957 -10.741703 -21.695126 -92.462375 17.964950 13.019404 18.520516 33.955969 -6.124421 -8.237741 5.264914 1.533241 34.137461 -9.031649 51.560213 102.531146 -2.996765 -6.359885 -0.428613 -26.491833 7.614573 9.502444 -26.968385 1.176521 0.000000 15.657361 0.000000 -4.381293 10.010716 -8.246816 0.000000 -7.103150 0.000000 -16.912859 -20.205630 -17.395470 0.000000 25.971536 0.000000 2.772527 -9.760596 12.014720 0.000000 -6.107398 0.000000
-107.831921 91.578809 141.381873 29.289772 8.271489 6.103906 0.339648 8.190090 2.961901 3.495836 7.808249 4.052068 3.284363 6.637800 5.018371 6.534600 5.602282 3.998623 -24.292792 12.925419 12.111552 -10.005818 11.594518 13.279094 7.392652 -1.892389 12.527182 -21.183234 -9.285926 -22.527646 -92.895573 17.587207 11.719807 18.036640 33.584376 -7.024615 -8.182682 4.482586 2.569745 37.192048 -8.628752 51.548868 103.800115 -1.406612 -10.847759 -1.638136 -29.210273 9.327631 10.445444 -26.844107 0.771073 0.000000 16.130697 0.000000 -4.970769 9.907129 -8.212537 0.000000 -7.069817 0.000000 -16.908034 -20.117820 -17.728354 0.000000 26.109816 0.000000 3.041411 -9.778860 11.979182 0.000000 -6.096353 0.000000
-107.688660 91.516296 141.354504 29.265794 8.142526 6.201536 0.252008 8.228388 3.163158 3.393792 7.420797 4.293983 2.912389 6.492930 5.201217 6.255027 5.246050 4.197618 -24.850796 13.106407 13.822230 -10.474293 11.935735 13.770973 7.487602 -1.614687 11.988170 -19.656901 -7.905062 -23.142218 -93.304951 17.645479 10.440616 17.520575 33.675579 -7.181504 -8.188187 3.901232 3.306641 40.852265 -7.924722 51.623181 104.566993 -1.008615 -15.513971 -2.193174 -30.144176 10.098850 11.161895 -26.974028 0.391847 0.000000 16.719639 0.000000 -5.564651 9.747809 -8.008276 0.000000 -6.791189 0.000000 -16.947992 -20.166900 -17.980854 0.000000 26.303251 0.000000 3.177913 -9.816047 12.012380 0.000000 -6.142043 0.000000
-107.531311 91.445337 141.342725 29.259435 7.996781 6.376843 0.102039 7.930229 3.494899 3.356962 7.416388 4.453578 2.344774 6.320233 5.005864 5.858300 5.162378 4.401359 -24.790927 13.051004 15.458875 -10.694321 11.825212 14.058144 7.677237 -1.568029 11.647360 -18.033223 -6.921144 -23.580512 -93.943805 17.381557 9.332621 17.832889 34.043238 -8.058621 -7.636255 3.007129 3.922391 42.938836 -7.858833 52.379835 105.139844 -0.999421 -18.839653 -2.848408 -29.808959 11.150654 11.494654 -27.055948 0.066593 0.000000 17.300859 0.000000 -5.808221 9.574267 -8.004298 0.000000 -6.743104 0.000000 -16.794000 -20.210802 -18.366032 0.000000 26.604093 0.000000 3.171286 -9.956165 12.117666 0.000000 -6.147063 0.000000
-107.368115 91.367627 141.323828 29.191924 7.827626 6.599490 -0.013518 7.944005 3.664330 3.264919 7.109628 4.619730 2.034757 6.069549 5.317051 5.565047 5.076430 3.995417 -24.836826 13.001847 16.981689 -11.119773 11.449460 13.327660 7.481306 -1.644298 11.492283 -16.442089 -5.953354 -23.959673 -94.092574 18.029381 8.424349 17.563437 33.401249 -8.931959 -7.614504 2.767391 4.486268 45.246873 -7.893642 52.744294 105.638234 -1.699168 -21.993398 -3.648214 -28.273962 12.408604 11.550800 -27.081338 -0.194950 0.000000 17.886668 0.000000 -5.739039 9.323702 -8.102832 0.000000 -6.629687 0.000000 -16.318047 -20.199172 -18.840984 0.000000 26.947282 0.000000 2.915677 -10.033191 12.197922 0.000000 -6.249265 0.000000
-107.241968 91.271808 141.267871 28.907154 7.757423 6.862140 -0.001724 7.833293 3.873715 3.317598 6.950648 4.705068 1.802123 5.831055 5.254503 5.360804 4.800938 3.953980 -25.127913 13.170680 17.797268 -11.477872 10.872553 12.712521 7.341878 -1.437816 11.505480 -15.423995 -5.252123 -24.260778 -93.873737 18.384097 7.775812 18.042093 33.745547 -8.508386 -7.599494 2.880546 4.775882 46.537591 -8.333587 52.751178 105.514094 -1.794729 -23.757516 -3.263681 -28.431075 12.876782 11.679576 -27.149470 -0.493940 0.000000 18.428515 0.000000 -5.499380 9.090351 -8.013231 0.000000 -6.581030 0.000000 -15.503719 -20.416969 -19.362885 0.000000 27.504291 0.000000 2.626669 -10.192051 12.313483 0.000000 -6.244949 0.000000
-107.102454 91.172314 141.195764 28.416858 7.681664 7.183031 0.084722 7.903950 4.054487 3.349473 6.607893 4.697400 1.699250 5.656737 5.114183 5.230425 4.556113 3.923555 -25.333958 13.218124 18.069176 -11.627713 10.571219 12.561560 7.630460 -1.123576 11.600962 -15.350773 -4.974271 -24.403631 -93.191462 18.188537 7.474246 18.352388 34.734377 -8.420557 -7.577883 3.041317 4.926476 47.365642 -8.585261 52.704803 105.344174 -1.764939 -25.158394 -3.353829 -28.359939 14.020352 12.050963 -27.176600 -0.896619 0.000000 19.016315 0.000000 -5.228107 8.860249 -7.953090 0.000000 -6.616411 0.000000 -14.390720 -20.702611 -20.002160 0.000000 28.174704 0.000000 2.314014 -10.329597 12.416779 0.000000 -6.299921 0.000000
